# xmcd
#
# Track frame offsets:
#	150
#	12870
#	29863
#	45694
#	60140
#	75173
#	93884
#	109482
#	125885
#	139732
#	153898
#	169171
#	185273
#	201299
#	218324
#	234637
#	248220
#	264534
#
# Disc length: 3744 seconds
#
# Revision: 1
# Processed by: cddbd v1.5.2PL0 Copyright (c) Steve Scherf et al.
# Submitted via: audiograbber 1.83.01
#
DISCID=ee0e9e12
DTITLE=Various Artist - Promo Only Country June 2015
DYEAR=2015
DGENRE=Country
TTITLE0=Thompson Square - Trans Am
TTITLE1=John Colbert - The More I Refill My Glass
TTITLE2=Zane Williams - Jayton And Jill
TTITLE3=Ray Scott - Ain't Always Thirsty
TTITLE4=Katye Hamlin - Love Is Like Rain
TTITLE5=Kid Rock - First Kiss (Country Mix)
TTITLE6=Jason Terry - Green Light Go
TTITLE7=Tyler Barham - Just Two Kids
TTITLE8=Cole Swindell - Let Me See Ya Girl
TTITLE9=Thomas Rhett - Crash And Burn
TTITLE10=George Strait - Let It Go
TTITLE11=Toby Keith - 35 MPH Town
TTITLE12=Josh Goodlett - Why You Gotta Be That Way
TTITLE13=Moonshine Bandits Feat. Crucifix - Lady Luck (Clean Edit)
TTITLE14=Chris Stapleton - Traveller
TTITLE15=Gwen Sebastian - Throw It Back
TTITLE16=A Thousand Horses - Smoke
TTITLE17=Tammie Davis - Confused
EXTD=
EXTT0=
EXTT1=
EXTT2=
EXTT3=
EXTT4=
EXTT5=
EXTT6=
EXTT7=
EXTT8=
EXTT9=
EXTT10=
EXTT11=
EXTT12=
EXTT13=
EXTT14=
EXTT15=
EXTT16=
EXTT17=
PLAYORDER=
